<?xml version="1.0" encoding="UTF-8"?>
<svg xmlns="http://www.w3.org/2000/svg" xmlns:xlink="http://www.w3.org/1999/xlink" viewBox="0 0 16 18" version="1.1">
<defs>
<clipPath id="clip1">
  <path d="M 6 4 L 15 4 L 15 13 L 6 13 Z M 6 4 "/>
</clipPath>
<clipPath id="clip2">
  <path d="M 13.417969 3.695312 L 7.621094 0.152344 C 7.285156 -0.0507812 6.738281 -0.0507812 6.40625 0.152344 L 0.605469 3.695312 C 0.273438 3.898438 0 4.398438 0 4.808594 L 0 11.890625 C 0.0273438 12.363281 0.253906 12.757812 0.605469 13 L 6.40625 16.542969 C 6.738281 16.746094 7.285156 16.746094 7.621094 16.542969 L 13.417969 13 C 13.796875 12.734375 14.011719 12.335938 14.027344 11.890625 L 14.027344 4.808594 C 14.011719 4.378906 13.769531 3.945312 13.417969 3.695312 Z M 13.417969 3.695312 "/>
</clipPath>
<linearGradient id="linear0" gradientUnits="userSpaceOnUse" x1="314.1754" y1="207.291" x2="443.4638" y2="372.7726" gradientTransform="matrix(0.0308285,0,0,0.0326087,0,0)">
<stop offset="0" style="stop-color:rgb(23.137255%,0%,60.784314%);stop-opacity:1;"/>
<stop offset="1" style="stop-color:rgb(22.352941%,0%,52.54902%);stop-opacity:1;"/>
</linearGradient>
<clipPath id="clip3">
  <path d="M 0 6 L 15 6 L 15 17 L 0 17 Z M 0 6 "/>
</clipPath>
<clipPath id="clip4">
  <path d="M 13.417969 3.695312 L 7.621094 0.152344 C 7.285156 -0.0507812 6.738281 -0.0507812 6.40625 0.152344 L 0.605469 3.695312 C 0.273438 3.898438 0 4.398438 0 4.808594 L 0 11.890625 C 0.0273438 12.363281 0.253906 12.757812 0.605469 13 L 6.40625 16.542969 C 6.738281 16.746094 7.285156 16.746094 7.621094 16.542969 L 13.417969 13 C 13.796875 12.734375 14.011719 12.335938 14.027344 11.890625 L 14.027344 4.808594 C 14.011719 4.378906 13.769531 3.945312 13.417969 3.695312 Z M 13.417969 3.695312 "/>
</clipPath>
<linearGradient id="linear1" gradientUnits="userSpaceOnUse" x1="115.2882" y1="326.1631" x2="252.7405" y2="502.094" gradientTransform="matrix(0.0308285,0,0,0.0326087,0,0)">
<stop offset="0" style="stop-color:rgb(20.392157%,0%,51.764706%);stop-opacity:1;"/>
<stop offset="1" style="stop-color:rgb(16.078431%,0%,39.215686%);stop-opacity:1;"/>
</linearGradient>
<clipPath id="clip5">
  <path d="M 0 0 L 15 0 L 15 14 L 0 14 Z M 0 0 "/>
</clipPath>
<clipPath id="clip6">
  <path d="M 13.417969 3.695312 L 7.621094 0.152344 C 7.285156 -0.0507812 6.738281 -0.0507812 6.40625 0.152344 L 0.605469 3.695312 C 0.273438 3.898438 0 4.398438 0 4.808594 L 0 11.890625 C 0.0273438 12.363281 0.253906 12.757812 0.605469 13 L 6.40625 16.542969 C 6.738281 16.746094 7.285156 16.746094 7.621094 16.542969 L 13.417969 13 C 13.796875 12.734375 14.011719 12.335938 14.027344 11.890625 L 14.027344 4.808594 C 14.011719 4.378906 13.769531 3.945312 13.417969 3.695312 Z M 13.417969 3.695312 "/>
</clipPath>
<linearGradient id="linear2" gradientUnits="userSpaceOnUse" x1="121.0946" y1="55.8074" x2="261.7725" y2="235.867" gradientTransform="matrix(0.0308285,0,0,0.0326087,0,0)">
<stop offset="0" style="stop-color:rgb(64.313725%,49.411765%,87.058824%);stop-opacity:1;"/>
<stop offset="1" style="stop-color:rgb(59.607843%,40%,82.745098%);stop-opacity:1;"/>
</linearGradient>
</defs>
<g id="surface3">
<g clip-path="url(#clip1)" clip-rule="nonzero">
<g clip-path="url(#clip2)" clip-rule="nonzero">
<path style=" stroke:none;fill-rule:nonzero;fill:url(#linear0);" d="M 6.863281 4.058594 L 15.109375 4.058594 L 15.109375 12.976562 L 6.863281 12.976562 Z M 6.863281 4.058594 "/>
</g>
</g>
<g clip-path="url(#clip3)" clip-rule="nonzero">
<g clip-path="url(#clip4)" clip-rule="nonzero">
<path style=" stroke:none;fill-rule:nonzero;fill:url(#linear1);" d="M 15.109375 13.296875 L 4.496094 6.804688 L -0.921875 6.804688 L -0.921875 17.554688 L 15.109375 17.554688 Z M 15.109375 13.296875 "/>
</g>
</g>
<g clip-path="url(#clip5)" clip-rule="nonzero">
<g clip-path="url(#clip6)" clip-rule="nonzero">
<path style=" stroke:none;fill-rule:nonzero;fill:url(#linear2);" d="M -0.921875 13.210938 L 15.109375 3.398438 L 15.109375 -0.472656 L -0.921875 -0.472656 Z M -0.921875 13.210938 "/>
</g>
</g>
<path style=" stroke:none;fill-rule:nonzero;fill:rgb(100%,100%,100%);fill-opacity:1;" d="M 2.335938 8.347656 C 2.308594 3.519531 8.425781 1.386719 11.0625 5.875 L 9.039062 7.113281 C 7.816406 4.976562 4.785156 5.738281 4.675781 8.347656 C 4.707031 10.753906 7.6875 11.867188 9.039062 9.582031 L 11.0625 10.820312 C 8.738281 15.089844 2.453125 13.554688 2.335938 8.347656 Z M 10.050781 6.945312 L 10.433594 6.945312 L 10.171875 9.636719 L 9.78125 9.636719 Z M 10.875 6.945312 L 11.261719 6.945312 L 10.996094 9.636719 L 10.605469 9.636719 Z M 9.617188 7.585938 L 11.546875 7.585938 L 11.546875 7.976562 L 9.617188 7.976562 Z M 9.511719 8.542969 L 11.4375 8.542969 L 11.4375 8.9375 L 9.511719 8.9375 Z M 9.511719 8.542969 "/>
</g>
</svg>
