<?xml version="1.0" encoding="UTF-8"?>
<svg xmlns="http://www.w3.org/2000/svg" xmlns:xlink="http://www.w3.org/1999/xlink" viewBox="0 0 91 35" version="1.1">
<g id="surface3">
<path style=" stroke:none;fill-rule:nonzero;fill:rgb(34.901961%,58.823529%,21.176471%);fill-opacity:1;" d="M 13.992188 4.507812 L 14.9375 6.304688 C 15.144531 6.628906 15.382812 6.925781 15.652344 7.199219 C 16.445312 8 17.199219 8.835938 17.871094 9.734375 C 19.472656 11.855469 20.554688 14.214844 21.324219 16.769531 C 21.789062 18.328125 22.039062 19.925781 22.058594 21.542969 C 22.136719 26.375 20.496094 30.523438 17.175781 33.972656 C 16.636719 34.519531 16.058594 35.023438 15.441406 35.472656 C 15.109375 35.472656 14.957031 35.210938 14.820312 34.988281 C 14.5625 34.550781 14.417969 34.070312 14.339844 33.585938 C 14.222656 33 14.144531 32.414062 14.183594 31.8125 L 14.183594 31.539062 C 14.164062 31.480469 13.875 4.648438 13.992188 4.511719 Z M 13.992188 4.507812 "/>
<path style=" stroke:none;fill-rule:nonzero;fill:rgb(42.352941%,67.45098%,28.235294%);fill-opacity:1;" d="M 13.992188 4.453125 C 13.953125 4.375 13.917969 4.433594 13.878906 4.472656 C 13.898438 4.859375 13.761719 5.210938 13.546875 5.542969 C 13.316406 5.875 13.007812 6.128906 12.699219 6.402344 C 10.980469 7.902344 9.632812 9.714844 8.550781 11.738281 C 7.121094 14.46875 6.367188 17.390625 6.15625 20.46875 C 6.0625 21.582031 6.503906 25.496094 6.851562 26.628906 C 7.796875 29.628906 9.496094 32.140625 11.707031 34.324219 C 12.246094 34.847656 12.824219 35.335938 13.421875 35.804688 C 13.597656 35.804688 13.617188 35.648438 13.65625 35.53125 C 13.730469 35.28125 13.789062 35.027344 13.828125 34.769531 C 14 33.796875 14.097656 32.820312 14.214844 31.847656 L 14 4.453125 Z M 13.992188 4.453125 "/>
<path style=" stroke:none;fill-rule:nonzero;fill:rgb(76.078431%,74.901961%,74.901961%);fill-opacity:1;" d="M 14.941406 36.664062 C 14.980469 36.214844 15.203125 35.84375 15.425781 35.472656 C 15.191406 35.378906 15.019531 35.183594 14.882812 34.964844 C 14.765625 34.773438 14.671875 34.527344 14.59375 34.324219 C 14.324219 33.503906 14.265625 32.648438 14.1875 31.808594 L 14.1875 31.300781 C 14.09375 31.382812 14.070312 32.042969 14.070312 32.140625 C 14.015625 33.035156 13.898438 33.914062 13.726562 34.769531 C 13.667969 35.121094 13.628906 35.472656 13.417969 35.785156 C 13.417969 35.824219 13.417969 35.863281 13.4375 35.921875 C 13.78125 36.953125 13.878906 38.003906 13.9375 39.078125 L 13.9375 39.46875 C 13.9375 39.933594 13.917969 39.835938 14.304688 39.992188 C 14.460938 40.050781 14.632812 40.070312 14.789062 40.1875 C 14.902344 40.1875 14.921875 40.089844 14.921875 40.011719 L 14.863281 39.367188 L 14.863281 37.574219 C 14.847656 37.261719 14.902344 36.953125 14.941406 36.660156 Z M 14.941406 36.664062 "/>
<path style=" stroke:none;fill-rule:nonzero;fill:rgb(27.843137%,27.843137%,29.019608%);fill-opacity:1;" d="M 29.597656 28.511719 L 29.597656 30.367188 C 29.59375 30.441406 29.597656 30.515625 29.609375 30.589844 C 29.632812 30.808594 29.765625 30.941406 29.964844 31.003906 C 30.148438 31.054688 30.332031 31.089844 30.519531 31.113281 C 30.628906 31.125 30.667969 31.175781 30.679688 31.292969 C 30.691406 31.707031 30.65625 31.757812 30.253906 31.730469 C 29.324219 31.683594 28.394531 31.671875 27.460938 31.730469 L 27.375 31.730469 C 27.082031 31.746094 27.058594 31.71875 27.058594 31.425781 C 27.058594 31.378906 27.070312 31.316406 27.070312 31.269531 C 27.070312 31.179688 27.132812 31.132812 27.214844 31.132812 C 27.410156 31.109375 27.59375 31.058594 27.773438 31.023438 C 28.027344 30.964844 28.171875 30.804688 28.199219 30.546875 C 28.234375 30.265625 28.234375 29.972656 28.234375 29.691406 L 28.246094 26.421875 C 28.253906 26.226562 28.148438 26.046875 27.980469 25.957031 C 27.761719 25.832031 27.527344 25.734375 27.289062 25.664062 C 27.214844 25.640625 27.144531 25.628906 27.082031 25.589844 C 26.90625 25.503906 26.902344 25.34375 27.070312 25.246094 C 27.132812 25.210938 27.203125 25.1875 27.277344 25.175781 C 28.011719 25.066406 28.730469 24.878906 29.429688 24.625 C 29.574219 24.574219 29.609375 24.589844 29.625 24.734375 C 29.636719 24.824219 29.625 24.929688 29.613281 25.015625 C 29.585938 25.175781 29.585938 25.332031 29.585938 25.480469 C 29.585938 25.539062 29.601562 25.601562 29.660156 25.640625 C 29.71875 25.675781 29.78125 25.640625 29.835938 25.601562 C 30.089844 25.40625 30.34375 25.222656 30.621094 25.066406 C 31.019531 24.847656 31.445312 24.652344 31.90625 24.589844 C 32.464844 24.515625 32.945312 24.664062 33.371094 25.03125 C 33.546875 25.1875 33.699219 25.367188 33.828125 25.566406 C 33.949219 25.746094 33.960938 25.75 34.121094 25.628906 C 34.578125 25.285156 35.0625 24.980469 35.582031 24.761719 C 36.128906 24.527344 36.683594 24.492188 37.238281 24.6875 C 37.808594 24.894531 38.195312 25.296875 38.425781 25.847656 C 38.621094 26.289062 38.703125 26.742188 38.703125 27.214844 L 38.703125 30.488281 C 38.703125 30.707031 38.792969 30.84375 39.007812 30.953125 C 39.238281 31.039062 39.492188 31.085938 39.730469 31.132812 C 39.890625 31.171875 39.890625 31.171875 39.890625 31.332031 C 39.867188 31.734375 39.828125 31.757812 39.441406 31.734375 C 38.472656 31.679688 37.5 31.679688 36.527344 31.734375 C 36.332031 31.746094 36.332031 31.746094 36.320312 31.550781 L 36.320312 31.488281 C 36.308594 31.160156 36.308594 31.160156 36.625 31.085938 L 36.9375 31 C 37.15625 30.949219 37.3125 30.753906 37.3125 30.523438 L 37.351562 29.609375 L 37.324219 27.214844 C 37.316406 27.003906 37.273438 26.792969 37.191406 26.59375 C 36.890625 25.847656 36.226562 25.582031 35.585938 25.652344 C 35.101562 25.703125 34.675781 25.898438 34.277344 26.179688 C 34.191406 26.238281 34.132812 26.3125 34.144531 26.4375 C 34.253906 27.21875 34.179688 28 34.195312 28.78125 L 34.195312 30.476562 C 34.195312 30.785156 34.316406 30.929688 34.605469 31.003906 L 35.164062 31.125 C 35.246094 31.136719 35.296875 31.175781 35.296875 31.273438 L 35.296875 31.363281 C 35.285156 31.703125 35.261719 31.71875 34.921875 31.714844 C 33.953125 31.667969 32.984375 31.679688 32.03125 31.714844 C 31.703125 31.726562 31.675781 31.691406 31.691406 31.359375 C 31.703125 31.160156 31.726562 31.152344 31.910156 31.113281 L 32.308594 31.039062 C 32.660156 30.96875 32.792969 30.832031 32.816406 30.453125 L 32.851562 29.636719 L 32.828125 27.183594 C 32.800781 26.875 32.738281 26.582031 32.574219 26.300781 C 32.332031 25.851562 31.953125 25.617188 31.433594 25.59375 C 30.914062 25.558594 30.457031 25.753906 30.019531 25.996094 C 29.714844 26.175781 29.585938 26.386719 29.609375 26.742188 L 29.609375 28.523438 Z M 52.382812 28.585938 L 52.382812 30.308594 C 52.382812 30.429688 52.394531 30.554688 52.40625 30.675781 C 52.417969 30.84375 52.535156 30.980469 52.695312 31.015625 C 52.90625 31.078125 53.121094 31.117188 53.335938 31.128906 C 53.457031 31.140625 53.484375 31.1875 53.496094 31.285156 L 53.496094 31.371094 C 53.484375 31.800781 53.433594 31.847656 53.023438 31.824219 C 52.101562 31.761719 51.183594 31.773438 50.265625 31.824219 L 49.910156 31.835938 C 49.839844 31.835938 49.824219 31.800781 49.804688 31.75 C 49.769531 31.582031 49.769531 31.40625 49.804688 31.238281 C 49.816406 31.164062 49.863281 31.148438 49.9375 31.128906 C 50.113281 31.105469 50.261719 31.066406 50.429688 31.039062 C 50.734375 30.964844 50.84375 30.84375 50.855469 30.527344 L 50.890625 29.5 L 50.890625 26.496094 C 50.890625 26.277344 50.804688 26.144531 50.613281 26.042969 C 50.394531 25.921875 50.164062 25.835938 49.921875 25.75 C 49.847656 25.726562 49.777344 25.703125 49.714844 25.664062 C 49.558594 25.554688 49.539062 25.398438 49.691406 25.273438 C 49.761719 25.21875 49.84375 25.183594 49.933594 25.175781 C 50.707031 25.054688 51.457031 24.882812 52.183594 24.589844 C 52.269531 24.554688 52.304688 24.578125 52.339844 24.652344 C 52.378906 24.726562 52.390625 24.808594 52.375 24.894531 L 52.339844 25.46875 C 52.339844 25.542969 52.304688 25.648438 52.363281 25.675781 C 52.4375 25.726562 52.484375 25.617188 52.546875 25.585938 C 52.902344 25.285156 53.296875 25.03125 53.71875 24.832031 C 54.09375 24.652344 54.480469 24.535156 54.917969 24.5625 C 55.726562 24.609375 56.308594 25.027344 56.683594 25.746094 C 56.878906 26.125 56.960938 26.539062 56.996094 26.96875 L 57.03125 27.863281 L 57.042969 30.558594 C 57.058594 30.765625 57.128906 30.902344 57.335938 30.976562 C 57.546875 31.046875 57.765625 31.101562 57.988281 31.132812 C 58.183594 31.160156 58.195312 31.195312 58.207031 31.378906 L 58.207031 31.4375 C 58.183594 31.855469 58.15625 31.867188 57.746094 31.839844 C 56.84375 31.792969 55.9375 31.792969 55.035156 31.839844 C 54.914062 31.855469 54.796875 31.839844 54.683594 31.855469 C 54.609375 31.855469 54.5625 31.839844 54.550781 31.769531 C 54.527344 31.609375 54.5 31.449219 54.539062 31.277344 C 54.550781 31.207031 54.585938 31.167969 54.671875 31.15625 L 55.226562 31.066406 C 55.421875 31.019531 55.53125 30.890625 55.554688 30.710938 L 55.578125 30.367188 L 55.566406 27.816406 C 55.566406 27.523438 55.554688 27.230469 55.496094 26.9375 C 55.347656 26.3125 54.878906 25.863281 54.238281 25.800781 C 53.679688 25.742188 53.175781 25.886719 52.714844 26.191406 C 52.484375 26.339844 52.386719 26.546875 52.386719 26.804688 L 52.386719 28.648438 C 52.386719 28.613281 52.386719 28.613281 52.398438 28.613281 Z M 52.382812 28.585938 "/>
<path style=" stroke:none;fill-rule:nonzero;fill:rgb(76.078431%,74.901961%,74.901961%);fill-opacity:1;" d="M 87.804688 25.132812 C 87.671875 24.238281 87.34375 23.445312 86.777344 22.75 C 86.28125 22.136719 85.640625 21.65625 84.914062 21.359375 C 84.152344 21.039062 83.339844 20.941406 82.519531 20.917969 C 82.179688 20.90625 77.558594 20.980469 77.222656 20.917969 C 77.136719 20.90625 77.078125 20.929688 77.027344 21.003906 C 76.964844 21.09375 76.90625 21.1875 76.867188 21.285156 C 76.722656 21.617188 76.722656 21.589844 77.074219 21.636719 C 77.363281 21.6875 77.640625 21.710938 77.921875 21.796875 C 78.175781 21.882812 78.355469 22.03125 78.417969 22.308594 C 78.441406 22.445312 78.464844 26.742188 78.464844 28.746094 L 78.417969 30.175781 C 78.40625 30.285156 78.394531 30.394531 78.355469 30.492188 C 78.308594 30.636719 78.222656 30.761719 78.078125 30.824219 C 77.917969 30.898438 77.746094 30.945312 77.570312 30.957031 C 77.242188 30.992188 77.195312 31.007812 77.085938 31.371094 L 77.050781 31.507812 C 77.027344 31.664062 77.039062 31.6875 77.195312 31.6875 L 80.8125 31.726562 L 82.226562 31.699219 L 83.207031 31.578125 C 84.320312 31.371094 85.3125 30.90625 86.160156 30.164062 C 86.640625 29.730469 87.035156 29.207031 87.320312 28.625 C 87.660156 27.941406 87.804688 27.195312 87.839844 26.4375 C 87.898438 26.011719 87.875 25.570312 87.804688 25.132812 Z M 86.050781 26.863281 C 86.003906 27.644531 85.84375 28.402344 85.445312 29.085938 C 84.9375 29.976562 84.210938 30.601562 83.210938 30.820312 C 82.773438 30.910156 82.339844 30.953125 81.882812 30.894531 C 81.554688 30.859375 81.242188 30.820312 80.9375 30.710938 C 80.394531 30.511719 80.199219 30.175781 80.1875 29.636719 L 80.175781 22.277344 C 80.175781 21.835938 80.371094 21.738281 80.683594 21.726562 C 81.15625 21.691406 81.640625 21.703125 82.113281 21.75 C 82.613281 21.800781 83.105469 21.917969 83.574219 22.109375 C 83.921875 22.253906 84.246094 22.457031 84.53125 22.707031 C 85.183594 23.269531 85.621094 23.976562 85.859375 24.804688 C 86.054688 25.476562 86.089844 26.160156 86.054688 26.84375 Z M 97.855469 28.0625 C 97.855469 27.988281 97.855469 27.929688 97.84375 27.855469 C 97.734375 27.183594 97.382812 26.667969 96.839844 26.28125 C 96.488281 26.023438 96.089844 25.851562 95.679688 25.730469 C 95.605469 25.707031 95.546875 25.679688 95.472656 25.667969 C 95.484375 25.609375 95.523438 25.597656 95.558594 25.582031 C 95.800781 25.460938 96.03125 25.328125 96.234375 25.144531 C 96.609375 24.828125 96.855469 24.433594 96.984375 23.957031 C 97.058594 23.703125 97.058594 23.445312 97.035156 23.175781 C 96.996094 22.539062 96.667969 21.957031 96.152344 21.589844 C 95.59375 21.175781 94.941406 21.003906 94.265625 20.992188 C 92.957031 20.964844 91.640625 20.992188 90.335938 20.992188 C 89.960938 20.992188 89.585938 21.015625 89.199219 20.957031 C 89.125 20.941406 89.019531 20.917969 88.96875 21.003906 C 88.878906 21.164062 88.773438 21.320312 88.738281 21.503906 C 88.726562 21.589844 88.75 21.636719 88.847656 21.652344 L 89.679688 21.773438 C 90.007812 21.824219 90.238281 22.003906 90.261719 22.300781 C 90.285156 22.5 90.296875 22.707031 90.296875 22.910156 L 90.273438 25.191406 L 90.261719 29.710938 C 90.261719 29.976562 90.226562 30.234375 90.175781 30.503906 C 90.152344 30.675781 90.027344 30.820312 89.863281 30.871094 C 89.621094 30.941406 89.390625 31.015625 89.136719 31.015625 C 88.996094 31.003906 88.867188 31.089844 88.820312 31.222656 C 88.773438 31.332031 88.734375 31.457031 88.710938 31.566406 C 88.6875 31.710938 88.726562 31.761719 88.871094 31.742188 C 88.980469 31.730469 92.96875 31.828125 93.71875 31.757812 C 94.167969 31.707031 94.605469 31.648438 95.050781 31.511719 C 95.8125 31.269531 96.515625 30.914062 97.070312 30.316406 C 97.53125 29.828125 97.796875 29.242188 97.820312 28.558594 C 97.855469 28.398438 97.855469 28.238281 97.855469 28.066406 Z M 91.992188 23.058594 L 92.027344 22.082031 C 92.027344 21.898438 92.097656 21.8125 92.28125 21.777344 C 92.570312 21.714844 92.859375 21.742188 93.152344 21.753906 C 93.441406 21.777344 93.71875 21.8125 94.007812 21.898438 C 94.539062 22.058594 94.953125 22.363281 95.195312 22.875 C 95.304688 23.109375 95.363281 23.363281 95.363281 23.621094 C 95.375 23.960938 95.351562 24.292969 95.21875 24.621094 C 95.015625 25.074219 94.6875 25.367188 94.214844 25.453125 C 93.742188 25.539062 92.402344 25.5 92.195312 25.5 C 92.015625 25.5 92 25.476562 92 25.292969 L 92 24.144531 C 91.972656 23.785156 91.96875 23.425781 91.988281 23.070312 Z M 95.921875 29.628906 C 95.714844 30.175781 95.339844 30.554688 94.808594 30.761719 C 94.515625 30.871094 94.226562 30.941406 93.921875 30.921875 C 93.546875 30.910156 93.171875 30.921875 92.796875 30.847656 C 92.289062 30.738281 92.0625 30.25 92.023438 29.894531 C 91.964844 29.273438 92 28.636719 91.988281 28.171875 L 91.988281 26.5625 C 91.988281 26.363281 92.011719 26.304688 92.21875 26.304688 L 93.355469 26.316406 L 94.128906 26.40625 C 94.675781 26.53125 95.171875 26.738281 95.558594 27.164062 C 95.871094 27.507812 96.042969 27.921875 96.078125 28.371094 C 96.113281 28.800781 96.089844 29.214844 95.933594 29.617188 Z M 95.921875 29.628906 "/>
<path style=" stroke:none;fill-rule:nonzero;fill:rgb(27.843137%,27.843137%,29.019608%);fill-opacity:1;" d="M 65.191406 25.949219 L 65.503906 25.996094 C 65.84375 26.011719 66.242188 25.886719 66.363281 25.410156 C 66.429688 25.183594 66.429688 24.941406 66.363281 24.714844 C 66.289062 24.714844 66.253906 24.777344 66.21875 24.800781 C 66.035156 24.945312 65.832031 25.03125 65.613281 25.058594 C 65.179688 25.105469 64.742188 25.082031 64.320312 24.921875 L 63.726562 24.714844 C 63.3125 24.578125 62.878906 24.519531 62.445312 24.546875 C 61.828125 24.59375 61.246094 24.800781 60.703125 25.09375 C 60.121094 25.414062 59.710938 25.890625 59.515625 26.535156 C 59.40625 26.914062 59.394531 27.304688 59.445312 27.695312 C 59.566406 28.589844 60.023438 29.210938 60.847656 29.539062 C 60.894531 29.554688 60.929688 29.578125 60.980469 29.589844 C 61.089844 29.652344 61.101562 29.710938 61.003906 29.796875 L 60.699219 30.003906 L 59.976562 30.457031 C 59.792969 30.566406 59.769531 30.652344 59.828125 30.847656 C 59.902344 31.074219 60.035156 31.277344 60.214844 31.433594 C 60.382812 31.578125 60.570312 31.691406 60.773438 31.773438 C 60.90625 31.835938 60.90625 31.863281 60.785156 31.972656 L 60.09375 32.472656 C 59.863281 32.652344 59.636719 32.828125 59.441406 33.058594 C 59.167969 33.351562 59.0625 33.765625 59.152344 34.15625 C 59.242188 34.582031 59.460938 34.964844 59.78125 35.257812 C 60.09375 35.550781 60.476562 35.761719 60.894531 35.867188 C 61.570312 36.0625 62.269531 36.074219 62.960938 35.941406 C 63.953125 35.757812 64.820312 35.3125 65.5 34.558594 C 65.972656 34.058594 66.25 33.472656 66.273438 32.773438 C 66.328125 31.9375 65.777344 31.183594 64.96875 30.992188 L 64.316406 30.867188 L 62.320312 30.691406 C 62.101562 30.675781 61.882812 30.640625 61.703125 30.53125 C 61.472656 30.382812 61.414062 30.101562 61.558594 29.921875 C 61.667969 29.785156 61.800781 29.699219 61.96875 29.6875 L 62.355469 29.652344 C 63.121094 29.574219 63.839844 29.242188 64.398438 28.710938 C 64.699219 28.433594 64.914062 28.074219 65.015625 27.675781 C 65.160156 27.148438 65.160156 26.601562 65.039062 26.066406 C 65.003906 25.933594 65.015625 25.917969 65.1875 25.945312 Z M 62.226562 32.03125 C 62.300781 32.042969 62.371094 32.03125 62.445312 32.03125 C 62.953125 32.054688 63.472656 32.089844 63.96875 32.226562 C 64.128906 32.277344 64.289062 32.335938 64.441406 32.410156 C 64.921875 32.679688 65.105469 33.144531 65.042969 33.644531 C 64.972656 34.191406 64.667969 34.582031 64.195312 34.839844 C 63.882812 35.019531 63.53125 35.097656 63.167969 35.132812 C 63.035156 35.144531 62.914062 35.132812 62.78125 35.132812 C 62.359375 35.144531 61.949219 35.097656 61.546875 34.925781 C 61.269531 34.816406 61.039062 34.660156 60.835938 34.4375 C 60.414062 34.011719 60.214844 33.230469 60.847656 32.59375 C 61.234375 32.234375 61.671875 31.984375 62.226562 32.03125 Z M 63.605469 28.222656 C 63.351562 28.867188 62.792969 29.0625 62.238281 28.976562 C 61.730469 28.90625 61.355469 28.625 61.113281 28.160156 C 60.800781 27.535156 60.714844 26.890625 60.898438 26.21875 C 61.03125 25.71875 61.332031 25.339844 61.863281 25.253906 C 62.542969 25.128906 63.191406 25.375 63.535156 26.058594 C 63.710938 26.390625 63.789062 26.792969 63.789062 27.363281 C 63.773438 27.597656 63.726562 27.914062 63.605469 28.21875 Z M 48.367188 27.390625 C 48.257812 26.730469 48.015625 26.132812 47.570312 25.632812 C 46.902344 24.886719 46.058594 24.558594 45.101562 24.558594 C 44.265625 24.542969 43.484375 24.789062 42.78125 25.230469 C 42.089844 25.644531 41.582031 26.316406 41.363281 27.097656 C 41.160156 27.804688 41.171875 28.527344 41.328125 29.246094 C 41.753906 31.175781 43.230469 32.003906 44.992188 31.882812 C 45.511719 31.847656 46.007812 31.675781 46.480469 31.445312 C 47.183594 31.113281 47.691406 30.589844 48.039062 29.894531 C 48.316406 29.320312 48.4375 28.707031 48.425781 28.011719 Z M 46.652344 30.101562 C 46.472656 30.664062 45.984375 31.066406 45.40625 31.125 C 44.875 31.199219 44.375 31.066406 43.929688 30.746094 C 43.605469 30.507812 43.34375 30.195312 43.167969 29.832031 C 42.671875 28.804688 42.585938 27.730469 42.839844 26.632812 C 42.921875 26.292969 43.097656 25.984375 43.347656 25.742188 C 43.796875 25.324219 44.316406 25.230469 44.898438 25.351562 C 45.453125 25.472656 45.875 25.777344 46.222656 26.242188 C 46.570312 26.707031 46.730469 27.242188 46.828125 27.804688 C 46.878906 28.085938 46.878906 28.378906 46.890625 28.5625 C 46.890625 29.148438 46.839844 29.636719 46.660156 30.101562 Z M 74.792969 27.488281 C 74.703125 26.78125 74.441406 26.132812 73.945312 25.597656 C 73.292969 24.875 72.445312 24.570312 71.503906 24.558594 C 70.691406 24.546875 69.941406 24.777344 69.253906 25.179688 C 68.480469 25.644531 67.949219 26.304688 67.742188 27.195312 C 67.496094 28.167969 67.601562 29.195312 68.03125 30.101562 C 68.429688 30.957031 69.109375 31.503906 70.003906 31.75 C 70.996094 32.015625 71.941406 31.894531 72.859375 31.445312 C 73.65625 31.054688 74.226562 30.441406 74.550781 29.613281 C 74.746094 29.125 74.816406 28.597656 74.828125 27.988281 C 74.839844 27.878906 74.816406 27.683594 74.792969 27.488281 Z M 73.125 29.941406 C 72.929688 30.601562 72.519531 31.027344 71.828125 31.128906 C 71.320312 31.199219 70.839844 31.078125 70.402344 30.785156 C 70.027344 30.527344 69.761719 30.1875 69.566406 29.785156 C 69.351562 29.355469 69.230469 28.90625 69.179688 28.441406 C 69.109375 27.867188 69.109375 27.308594 69.242188 26.730469 C 69.265625 26.617188 69.304688 26.507812 69.351562 26.402344 C 69.6875 25.546875 70.4375 25.15625 71.320312 25.351562 C 71.914062 25.488281 72.363281 25.816406 72.699219 26.316406 C 73.027344 26.804688 73.183594 27.34375 73.257812 27.925781 C 73.292969 28.160156 73.308594 28.402344 73.292969 28.609375 C 73.292969 29.085938 73.257812 29.523438 73.117188 29.953125 Z M 73.125 29.941406 "/>
</g>
</svg>
