<?xml version="1.0" encoding="UTF-8"?>
<svg xmlns="http://www.w3.org/2000/svg" xmlns:xlink="http://www.w3.org/1999/xlink" viewBox="0 0 35 35" version="1.1">
<defs>
<filter id="alpha" filterUnits="objectBoundingBox" x="0%" y="0%" width="100%" height="100%">
  <feColorMatrix type="matrix" in="SourceGraphic" values="0 0 0 0 1 0 0 0 0 1 0 0 0 0 1 0 0 0 1 0"/>
</filter>
<mask id="mask0">
  <g filter="url(#alpha)">
<rect x="0" y="0" width="35" height="35" style="fill:rgb(0%,0%,0%);fill-opacity:0.101961;stroke:none;"/>
  </g>
</mask>
<clipPath id="clip1">
  <rect x="0" y="0" width="35" height="35"/>
</clipPath>
<g id="surface5" clip-path="url(#clip1)">
<path style=" stroke:none;fill-rule:nonzero;fill:rgb(100%,100%,100%);fill-opacity:1;" d="M 5.371094 4.921875 C 0.523438 9.242188 -1.535156 15.890625 0.0273438 22.191406 C 1.585938 28.492188 6.507812 33.414062 12.808594 34.972656 C 19.109375 36.535156 25.757812 34.476562 30.078125 29.628906 Z M 5.371094 4.921875 "/>
</g>
</defs>
<g id="surface1">
<path style=" stroke:none;fill-rule:nonzero;fill:rgb(36.078431%,17.647059%,56.862745%);fill-opacity:1;" d="M 35 17.5 C 35 27.164062 27.164062 35 17.5 35 C 7.835938 35 0 27.164062 0 17.5 C 0 7.835938 7.835938 0 17.5 0 C 27.164062 0 35 7.835938 35 17.5 Z M 35 17.5 "/>
<use xlink:href="#surface5" mask="url(#mask0)"/>
<path style=" stroke:none;fill-rule:nonzero;fill:rgb(100%,100%,100%);fill-opacity:1;" d="M 4.046875 20.371094 C 3.839844 20.375 3.640625 20.292969 3.5 20.140625 C 3.355469 19.996094 3.273438 19.800781 3.277344 19.59375 C 3.273438 19.390625 3.355469 19.191406 3.5 19.046875 C 3.640625 18.894531 3.839844 18.808594 4.046875 18.8125 C 4.253906 18.8125 4.453125 18.898438 4.59375 19.046875 C 4.742188 19.191406 4.824219 19.386719 4.824219 19.59375 C 4.824219 19.800781 4.742188 20 4.59375 20.140625 C 4.449219 20.289062 4.253906 20.371094 4.046875 20.371094 Z M 4.046875 20.371094 "/>
<path style=" stroke:none;fill-rule:nonzero;fill:rgb(100%,100%,100%);fill-opacity:1;" d="M 14.914062 20.234375 L 13.480469 20.234375 L 8.355469 12.28125 C 8.230469 12.085938 8.121094 11.878906 8.039062 11.660156 L 7.996094 11.660156 C 8.042969 12.113281 8.0625 12.570312 8.050781 13.027344 L 8.050781 20.234375 L 6.886719 20.234375 L 6.886719 10.265625 L 8.398438 10.265625 L 13.386719 18.074219 C 13.59375 18.398438 13.730469 18.621094 13.792969 18.742188 L 13.820312 18.742188 C 13.761719 18.253906 13.738281 17.765625 13.75 17.277344 L 13.75 10.265625 L 14.914062 10.265625 Z M 14.914062 20.234375 "/>
<path style=" stroke:none;fill-rule:nonzero;fill:rgb(100%,100%,100%);fill-opacity:1;" d="M 22.800781 20.234375 L 17.5 20.234375 L 17.5 10.265625 L 22.554688 10.265625 L 22.554688 11.320312 L 18.691406 11.320312 L 18.691406 14.632812 L 22.289062 14.632812 L 22.289062 15.683594 L 18.691406 15.683594 L 18.691406 19.140625 L 22.804688 19.140625 Z M 22.800781 20.234375 "/>
<path style=" stroke:none;fill-rule:nonzero;fill:rgb(100%,100%,100%);fill-opacity:1;" d="M 30.625 11.320312 L 27.726562 11.320312 L 27.726562 20.234375 L 26.5625 20.234375 L 26.5625 11.320312 L 23.695312 11.320312 L 23.695312 10.265625 L 30.625 10.265625 Z M 30.625 11.320312 "/>
<path style=" stroke:none;fill-rule:nonzero;fill:rgb(94.901961%,94.901961%,94.901961%);fill-opacity:1;" d="M 14.285156 27.015625 C 13.890625 27.207031 13.453125 27.296875 13.015625 27.285156 C 12.425781 27.308594 11.855469 27.082031 11.445312 26.65625 C 11.042969 26.203125 10.832031 25.617188 10.855469 25.015625 C 10.824219 24.355469 11.066406 23.710938 11.515625 23.230469 C 11.957031 22.777344 12.570312 22.53125 13.203125 22.554688 C 13.574219 22.539062 13.949219 22.605469 14.296875 22.746094 L 14.296875 23.292969 C 13.960938 23.105469 13.582031 23.011719 13.203125 23.019531 C 12.714844 23.003906 12.246094 23.203125 11.917969 23.566406 C 11.574219 23.953125 11.398438 24.460938 11.425781 24.976562 C 11.398438 25.464844 11.5625 25.945312 11.882812 26.316406 C 12.195312 26.648438 12.636719 26.832031 13.09375 26.8125 C 13.511719 26.824219 13.925781 26.71875 14.289062 26.507812 Z M 14.285156 27.015625 "/>
<path style=" stroke:none;fill-rule:nonzero;fill:rgb(94.901961%,94.901961%,94.901961%);fill-opacity:1;" d="M 16.519531 27.285156 C 16.082031 27.296875 15.65625 27.121094 15.355469 26.796875 C 15.058594 26.464844 14.902344 26.023438 14.925781 25.578125 C 14.898438 25.105469 15.058594 24.640625 15.378906 24.285156 C 15.703125 23.96875 16.144531 23.800781 16.597656 23.820312 C 17.027344 23.800781 17.445312 23.964844 17.742188 24.277344 C 18.03125 24.625 18.179688 25.074219 18.152344 25.527344 C 18.171875 25.988281 18.015625 26.441406 17.707031 26.785156 C 17.402344 27.117188 16.96875 27.296875 16.519531 27.285156 Z M 16.558594 24.292969 C 16.253906 24.28125 15.960938 24.40625 15.761719 24.636719 C 15.550781 24.90625 15.445312 25.246094 15.464844 25.589844 C 15.445312 25.921875 15.550781 26.25 15.761719 26.507812 C 15.960938 26.734375 16.253906 26.859375 16.558594 26.847656 C 16.855469 26.863281 17.144531 26.742188 17.339844 26.519531 C 17.539062 26.246094 17.636719 25.914062 17.613281 25.578125 C 17.636719 25.238281 17.539062 24.90625 17.339844 24.632812 C 17.148438 24.402344 16.859375 24.277344 16.558594 24.292969 Z M 16.558594 24.292969 "/>
<path style=" stroke:none;fill-rule:nonzero;fill:rgb(94.901961%,94.901961%,94.901961%);fill-opacity:1;" d="M 20.703125 24.457031 C 20.585938 24.378906 20.445312 24.34375 20.304688 24.351562 C 20.082031 24.359375 19.875 24.480469 19.757812 24.667969 C 19.597656 24.925781 19.515625 25.230469 19.535156 25.535156 L 19.535156 27.207031 L 18.988281 27.207031 L 18.988281 23.925781 L 19.535156 23.925781 L 19.535156 24.609375 C 19.59375 24.398438 19.714844 24.207031 19.878906 24.0625 C 20.023438 23.9375 20.203125 23.871094 20.394531 23.871094 C 20.5 23.867188 20.605469 23.882812 20.703125 23.914062 Z M 20.703125 24.457031 "/>
<path style=" stroke:none;fill-rule:nonzero;fill:rgb(94.901961%,94.901961%,94.901961%);fill-opacity:1;" d="M 23.910156 25.703125 L 21.597656 25.703125 C 21.582031 26.007812 21.679688 26.308594 21.875 26.546875 C 22.078125 26.75 22.363281 26.855469 22.652344 26.839844 C 23.023438 26.835938 23.378906 26.707031 23.667969 26.472656 L 23.667969 26.964844 C 23.332031 27.1875 22.929688 27.296875 22.527344 27.277344 C 22.113281 27.300781 21.710938 27.132812 21.433594 26.828125 C 21.148438 26.472656 21.003906 26.027344 21.03125 25.570312 C 21.011719 25.117188 21.167969 24.671875 21.464844 24.324219 C 21.738281 24.007812 22.140625 23.832031 22.558594 23.84375 C 22.9375 23.824219 23.304688 23.976562 23.554688 24.257812 C 23.804688 24.589844 23.929688 25.003906 23.902344 25.417969 Z M 23.363281 25.261719 C 23.375 25.007812 23.296875 24.757812 23.144531 24.554688 C 22.992188 24.382812 22.769531 24.289062 22.542969 24.304688 C 22.304688 24.300781 22.074219 24.398438 21.914062 24.570312 C 21.734375 24.761719 21.621094 25.003906 21.589844 25.265625 Z M 23.363281 25.261719 "/>
</g>
</svg>
